<mxfile host="app.diagrams.net" modified="2020-04-10T08:59:08.040Z" agent="5.0 (Windows)" etag="B1-1-L-9pRffLrqfDriw" version="12.9.10" type="github">
  <diagram id="XqJHVlFT3tDL70v1qYJr" name="Pagina-1">
    <mxGraphModel dx="1422" dy="741" grid="1" gridSize="10" guides="1" tooltips="1" connect="1" arrows="1" fold="1" page="1" pageScale="1" pageWidth="1169" pageHeight="827" math="0" shadow="0">
      <root>
        <mxCell id="0" />
        <mxCell id="1" parent="0" />
        <mxCell id="JCCNtM0P44NZXTne3h0--3" style="edgeStyle=orthogonalEdgeStyle;rounded=0;orthogonalLoop=1;jettySize=auto;html=1;entryX=0.5;entryY=0;entryDx=0;entryDy=0;" parent="1" source="JCCNtM0P44NZXTne3h0--1" target="JCCNtM0P44NZXTne3h0--2" edge="1">
          <mxGeometry relative="1" as="geometry" />
        </mxCell>
        <mxCell id="JCCNtM0P44NZXTne3h0--1" value="START" style="ellipse;whiteSpace=wrap;html=1;" parent="1" vertex="1">
          <mxGeometry x="500" y="10" width="120" height="80" as="geometry" />
        </mxCell>
        <mxCell id="JCCNtM0P44NZXTne3h0--15" style="edgeStyle=orthogonalEdgeStyle;rounded=0;orthogonalLoop=1;jettySize=auto;html=1;entryX=0.5;entryY=0;entryDx=0;entryDy=0;" parent="1" source="JCCNtM0P44NZXTne3h0--2" target="JCCNtM0P44NZXTne3h0--13" edge="1">
          <mxGeometry relative="1" as="geometry" />
        </mxCell>
        <mxCell id="JCCNtM0P44NZXTne3h0--20" style="edgeStyle=orthogonalEdgeStyle;rounded=0;orthogonalLoop=1;jettySize=auto;html=1;entryX=1;entryY=0.5;entryDx=0;entryDy=0;fontSize=20;" parent="1" source="JCCNtM0P44NZXTne3h0--2" target="JCCNtM0P44NZXTne3h0--19" edge="1">
          <mxGeometry relative="1" as="geometry" />
        </mxCell>
        <mxCell id="rlVYw7BHJk8TIfh5O3i5-2" style="edgeStyle=orthogonalEdgeStyle;rounded=0;orthogonalLoop=1;jettySize=auto;html=1;entryX=0.5;entryY=0;entryDx=0;entryDy=0;fontSize=20;" edge="1" parent="1" source="JCCNtM0P44NZXTne3h0--2" target="rlVYw7BHJk8TIfh5O3i5-1">
          <mxGeometry relative="1" as="geometry" />
        </mxCell>
        <mxCell id="JCCNtM0P44NZXTne3h0--2" value="init sysytem board" style="rounded=0;whiteSpace=wrap;html=1;" parent="1" vertex="1">
          <mxGeometry x="500" y="180" width="120" height="60" as="geometry" />
        </mxCell>
        <mxCell id="JCCNtM0P44NZXTne3h0--4" value="checkProtectionSystem" style="rounded=1;whiteSpace=wrap;html=1;" parent="1" vertex="1">
          <mxGeometry x="50" y="500" width="140" height="60" as="geometry" />
        </mxCell>
        <mxCell id="JCCNtM0P44NZXTne3h0--9" style="edgeStyle=orthogonalEdgeStyle;rounded=0;orthogonalLoop=1;jettySize=auto;html=1;entryX=0.5;entryY=0;entryDx=0;entryDy=0;" parent="1" target="JCCNtM0P44NZXTne3h0--5" edge="1">
          <mxGeometry relative="1" as="geometry">
            <mxPoint x="300" y="430" as="sourcePoint" />
          </mxGeometry>
        </mxCell>
        <mxCell id="JCCNtM0P44NZXTne3h0--5" value="systemTiming" style="rounded=1;whiteSpace=wrap;html=1;" parent="1" vertex="1">
          <mxGeometry x="240" y="500" width="120" height="60" as="geometry" />
        </mxCell>
        <mxCell id="JCCNtM0P44NZXTne3h0--10" style="edgeStyle=orthogonalEdgeStyle;rounded=0;orthogonalLoop=1;jettySize=auto;html=1;" parent="1" target="JCCNtM0P44NZXTne3h0--6" edge="1">
          <mxGeometry relative="1" as="geometry">
            <mxPoint x="490" y="430" as="sourcePoint" />
            <Array as="points">
              <mxPoint x="490" y="430" />
            </Array>
          </mxGeometry>
        </mxCell>
        <mxCell id="JCCNtM0P44NZXTne3h0--6" value="bootSystem" style="rounded=1;whiteSpace=wrap;html=1;" parent="1" vertex="1">
          <mxGeometry x="430" y="504" width="120" height="60" as="geometry" />
        </mxCell>
        <mxCell id="JCCNtM0P44NZXTne3h0--11" style="edgeStyle=orthogonalEdgeStyle;rounded=0;orthogonalLoop=1;jettySize=auto;html=1;entryX=0.5;entryY=0;entryDx=0;entryDy=0;" parent="1" target="JCCNtM0P44NZXTne3h0--7" edge="1">
          <mxGeometry relative="1" as="geometry">
            <mxPoint x="560" y="430" as="sourcePoint" />
          </mxGeometry>
        </mxCell>
        <mxCell id="JCCNtM0P44NZXTne3h0--7" value="systemCore" style="rounded=1;whiteSpace=wrap;html=1;" parent="1" vertex="1">
          <mxGeometry x="620" y="500" width="120" height="60" as="geometry" />
        </mxCell>
        <mxCell id="JCCNtM0P44NZXTne3h0--13" value="serviceButton" style="rounded=1;whiteSpace=wrap;html=1;" parent="1" vertex="1">
          <mxGeometry x="800" y="325" width="120" height="60" as="geometry" />
        </mxCell>
        <mxCell id="JCCNtM0P44NZXTne3h0--16" style="edgeStyle=orthogonalEdgeStyle;rounded=0;orthogonalLoop=1;jettySize=auto;html=1;exitX=0.5;exitY=0;exitDx=0;exitDy=0;entryX=0.5;entryY=0;entryDx=0;entryDy=0;" parent="1" target="JCCNtM0P44NZXTne3h0--14" edge="1">
          <mxGeometry relative="1" as="geometry">
            <mxPoint x="860" y="210" as="sourcePoint" />
          </mxGeometry>
        </mxCell>
        <mxCell id="JCCNtM0P44NZXTne3h0--14" value="keypadEvent" style="rounded=1;whiteSpace=wrap;html=1;" parent="1" vertex="1">
          <mxGeometry x="1000" y="325" width="120" height="60" as="geometry" />
        </mxCell>
        <mxCell id="JCCNtM0P44NZXTne3h0--17" value="task" style="text;html=1;align=center;verticalAlign=middle;resizable=0;points=[];autosize=1;fontSize=20;" parent="1" vertex="1">
          <mxGeometry x="319" y="276" width="50" height="30" as="geometry" />
        </mxCell>
        <mxCell id="JCCNtM0P44NZXTne3h0--18" value="listener function" style="text;html=1;align=center;verticalAlign=middle;resizable=0;points=[];autosize=1;fontSize=20;" parent="1" vertex="1">
          <mxGeometry x="760" y="180" width="160" height="30" as="geometry" />
        </mxCell>
        <mxCell id="JCCNtM0P44NZXTne3h0--19" value="&lt;font style=&quot;font-size: 12px&quot;&gt;ISR(TIMER2_OVF_vect)&lt;/font&gt;" style="rounded=1;whiteSpace=wrap;html=1;fontSize=20;" parent="1" vertex="1">
          <mxGeometry x="170" y="180" width="160" height="60" as="geometry" />
        </mxCell>
        <mxCell id="rlVYw7BHJk8TIfh5O3i5-3" style="edgeStyle=orthogonalEdgeStyle;rounded=0;orthogonalLoop=1;jettySize=auto;html=1;entryX=0.5;entryY=0;entryDx=0;entryDy=0;fontSize=20;" edge="1" parent="1" source="rlVYw7BHJk8TIfh5O3i5-1" target="JCCNtM0P44NZXTne3h0--4">
          <mxGeometry relative="1" as="geometry">
            <Array as="points">
              <mxPoint x="560" y="430" />
              <mxPoint x="120" y="430" />
            </Array>
          </mxGeometry>
        </mxCell>
        <mxCell id="rlVYw7BHJk8TIfh5O3i5-1" value="&lt;font style=&quot;font-size: 12px&quot;&gt;main&lt;/font&gt;" style="rounded=0;whiteSpace=wrap;html=1;fontSize=20;" vertex="1" parent="1">
          <mxGeometry x="500" y="330" width="120" height="50" as="geometry" />
        </mxCell>
      </root>
    </mxGraphModel>
  </diagram>
</mxfile>
